<?xml version="1.0" encoding="UTF-8" standalone="no"?>
<!DOCTYPE svg PUBLIC "-//W3C//DTD SVG 1.1//EN"
 "http://www.w3.org/Graphics/SVG/1.1/DTD/svg11.dtd">
<!-- Generated by graphviz version 2.26.3 (20100126.1600)
 -->
<!-- Title: G Pages: 1 -->
<svg width="182pt" height="194pt"
 viewBox="0.00 0.00 182.00 194.00" xmlns="http://www.w3.org/2000/svg" xmlns:xlink="http://www.w3.org/1999/xlink">
<g id="graph1" class="graph" transform="scale(1 1) rotate(0) translate(4 190)">
<title>G</title>
<polygon fill="white" stroke="white" points="-4,5 -4,-190 179,-190 179,5 -4,5"/>
<!-- main -->
<g id="node1" class="node"><title>main</title>
<ellipse fill="none" stroke="black" cx="87" cy="-167" rx="34.8574" ry="18.3848"/>
<text text-anchor="middle" x="87" y="-163.4" font-family="Times Roman,serif" font-size="14.00">main</text>
</g>
<!-- modA -->
<g id="node3" class="node"><title>modA</title>
<ellipse fill="none" stroke="black" cx="39" cy="-93" rx="39.0967" ry="18.3848"/>
<text text-anchor="middle" x="39" y="-89.4" font-family="Times Roman,serif" font-size="14.00">modA</text>
</g>
<!-- main&#45;&gt;modA -->
<g id="edge2" class="edge"><title>main&#45;&gt;modA</title>
<path fill="none" stroke="black" d="M75.6247,-149.463C69.7924,-140.472 62.5696,-129.337 56.0837,-119.337"/>
<polygon fill="black" stroke="black" points="59.0054,-117.41 50.6271,-110.925 53.1327,-121.219 59.0054,-117.41"/>
</g>
<!-- modB -->
<g id="node5" class="node"><title>modB</title>
<ellipse fill="none" stroke="black" cx="135" cy="-93" rx="39.0967" ry="18.3848"/>
<text text-anchor="middle" x="135" y="-89.4" font-family="Times Roman,serif" font-size="14.00">modB</text>
</g>
<!-- main&#45;&gt;modB -->
<g id="edge4" class="edge"><title>main&#45;&gt;modB</title>
<path fill="none" stroke="black" d="M98.3753,-149.463C104.208,-140.472 111.43,-129.337 117.916,-119.337"/>
<polygon fill="black" stroke="black" points="120.867,-121.219 123.373,-110.925 114.995,-117.41 120.867,-121.219"/>
</g>
<!-- modC -->
<g id="node7" class="node"><title>modC</title>
<ellipse fill="none" stroke="black" cx="87" cy="-19" rx="39.0967" ry="18.3848"/>
<text text-anchor="middle" x="87" y="-15.4" font-family="Times Roman,serif" font-size="14.00">modC</text>
</g>
<!-- modA&#45;&gt;modC -->
<g id="edge6" class="edge"><title>modA&#45;&gt;modC</title>
<path fill="none" stroke="black" d="M50.6195,-75.0867C56.3975,-66.1789 63.4939,-55.2386 69.8803,-45.3929"/>
<polygon fill="black" stroke="black" points="72.982,-47.0427 75.4875,-36.7484 67.1092,-43.2333 72.982,-47.0427"/>
</g>
<!-- modB&#45;&gt;modC -->
<g id="edge8" class="edge"><title>modB&#45;&gt;modC</title>
<path fill="none" stroke="black" d="M123.381,-75.0867C117.603,-66.1789 110.506,-55.2386 104.12,-45.3929"/>
<polygon fill="black" stroke="black" points="106.891,-43.2333 98.5125,-36.7484 101.018,-47.0427 106.891,-43.2333"/>
</g>
</g>
</svg>
