<?xml version="1.0" encoding="UTF-8" standalone="no"?>
<!DOCTYPE svg PUBLIC "-//W3C//DTD SVG 1.1//EN"
 "http://www.w3.org/Graphics/SVG/1.1/DTD/svg11.dtd">
<!-- Generated by graphviz version 2.26.3 (20100126.1600)
 -->
<!-- Title: G Pages: 1 -->
<svg width="86pt" height="268pt"
 viewBox="0.00 0.00 86.00 268.00" xmlns="http://www.w3.org/2000/svg" xmlns:xlink="http://www.w3.org/1999/xlink">
<g id="graph1" class="graph" transform="scale(1 1) rotate(0) translate(4 264)">
<title>G</title>
<polygon fill="white" stroke="white" points="-4,5 -4,-264 83,-264 83,5 -4,5"/>
<!-- modC -->
<g id="node1" class="node"><title>modC</title>
<ellipse fill="none" stroke="black" cx="39" cy="-241" rx="39.0967" ry="18.3848"/>
<text text-anchor="middle" x="39" y="-237.4" font-family="Times Roman,serif" font-size="14.00">modC</text>
</g>
<!-- modB -->
<g id="node3" class="node"><title>modB</title>
<ellipse fill="none" stroke="black" cx="39" cy="-167" rx="39.0967" ry="18.3848"/>
<text text-anchor="middle" x="39" y="-163.4" font-family="Times Roman,serif" font-size="14.00">modB</text>
</g>
<!-- modC&#45;&gt;modB -->
<g id="edge2" class="edge"><title>modC&#45;&gt;modB</title>
<path fill="none" stroke="black" d="M39,-222.327C39,-214.264 39,-204.648 39,-195.711"/>
<polygon fill="black" stroke="black" points="42.5001,-195.667 39,-185.667 35.5001,-195.667 42.5001,-195.667"/>
</g>
<!-- modA -->
<g id="node5" class="node"><title>modA</title>
<ellipse fill="none" stroke="black" cx="39" cy="-93" rx="39.0967" ry="18.3848"/>
<text text-anchor="middle" x="39" y="-89.4" font-family="Times Roman,serif" font-size="14.00">modA</text>
</g>
<!-- modB&#45;&gt;modA -->
<g id="edge4" class="edge"><title>modB&#45;&gt;modA</title>
<path fill="none" stroke="black" d="M39,-148.327C39,-140.264 39,-130.648 39,-121.711"/>
<polygon fill="black" stroke="black" points="42.5001,-121.667 39,-111.667 35.5001,-121.667 42.5001,-121.667"/>
</g>
<!-- main -->
<g id="node7" class="node"><title>main</title>
<ellipse fill="none" stroke="black" cx="39" cy="-19" rx="34.8574" ry="18.3848"/>
<text text-anchor="middle" x="39" y="-15.4" font-family="Times Roman,serif" font-size="14.00">main</text>
</g>
<!-- modA&#45;&gt;main -->
<g id="edge6" class="edge"><title>modA&#45;&gt;main</title>
<path fill="none" stroke="black" d="M39,-74.3267C39,-66.2639 39,-56.6477 39,-47.7115"/>
<polygon fill="black" stroke="black" points="42.5001,-47.6673 39,-37.6674 35.5001,-47.6674 42.5001,-47.6673"/>
</g>
</g>
</svg>
